<svg width="523" height="438" viewBox="0 0 523 438" fill="none" xmlns="http://www.w3.org/2000/svg">
<path d="M279.477 268.343L253.654 367.843L246.424 358.096C250.273 327.894 251.381 297.339 249.732 266.89C246.79 218.23 279.477 268.343 279.477 268.343Z" fill="#F4A28C"/>
<path opacity="0.08" d="M279.477 268.343L253.654 367.843L246.424 358.096C250.273 327.894 251.381 297.339 249.732 266.89C246.79 218.23 279.477 268.343 279.477 268.343Z" fill="black"/>
<path d="M221.282 100.254L160.45 116.304C150.74 118.866 144.738 129.687 147.044 140.474L172.287 258.55C174.593 269.337 184.333 276.004 194.043 273.443L254.875 257.392C264.585 254.83 270.587 244.009 268.281 233.223L243.038 115.147C240.732 104.36 230.992 97.6923 221.282 100.254Z" fill="#FFD200"/>
<path opacity="0.08" d="M221.282 100.254L160.45 116.304C150.74 118.866 144.738 129.687 147.044 140.474L172.287 258.55C174.593 269.337 184.333 276.004 194.043 273.443L254.875 257.392C264.585 254.83 270.587 244.009 268.281 233.223L243.038 115.147C240.732 104.36 230.992 97.6923 221.282 100.254Z" fill="black"/>
<path d="M240.555 95.1506L179.722 111.201C170.013 113.763 164.011 124.584 166.317 135.37L191.559 253.447C193.865 264.233 203.606 270.901 213.315 268.339L274.148 252.289C283.857 249.727 289.859 238.906 287.553 228.119L262.311 110.043C260.005 99.2564 250.264 92.5888 240.555 95.1506Z" fill="#FFD200"/>
<path d="M256.126 135.972C256.126 135.972 279.347 193.885 316.807 188.743C354.267 183.601 381.293 106.906 381.293 106.906L368.715 99.8467C368.715 99.8467 325.567 178.996 303.34 140.082L300.202 136.974C294.164 131.006 286.41 127.623 278.331 127.431C270.251 127.24 262.374 130.252 256.113 135.928L256.126 135.972Z" fill="#2FAEED"/>
<path opacity="0.35" d="M256.126 135.972C256.126 135.972 279.347 193.885 316.807 188.743C354.267 183.601 381.293 106.906 381.293 106.906L368.715 99.8467C368.715 99.8467 325.567 178.996 303.34 140.082L300.202 136.974C294.164 131.006 286.41 127.623 278.331 127.431C270.251 127.24 262.374 130.252 256.113 135.928L256.126 135.972Z" fill="white"/>
<path d="M242.711 70.5197C242.711 70.5197 246.084 79.482 246.463 86.1056C246.5 86.7472 246.423 87.3906 246.235 87.9987C246.047 88.6067 245.752 89.1674 245.368 89.6482C244.984 90.129 244.518 90.5205 243.996 90.8C243.475 91.0795 242.909 91.2415 242.332 91.2767C239.324 91.4364 235.219 90.6811 232.878 86.1346L228.054 78.8719C227.223 77.3188 226.847 75.5172 226.978 73.7165C227.109 71.9157 227.741 70.2047 228.786 68.8202C232.395 63.533 240.893 64.9855 242.711 70.5197Z" fill="#F4A28C"/>
<path d="M228.995 82.4014L230.734 114.169L246.424 111.845L239.05 90.2306L228.995 82.4014Z" fill="#F4A28C"/>
<path d="M240.749 71.6382C238.218 72.6759 235.584 73.378 232.904 73.7299C234.011 74.7196 234.832 76.0476 235.267 77.55C235.701 79.0524 235.73 80.6634 235.349 82.1838C235.006 83.6664 234.209 84.97 233.095 85.8711C231.981 86.7722 230.619 87.2146 229.243 87.1224L225.935 75.1534C225.411 73.4664 225.308 71.6531 225.637 69.9062C225.967 68.1593 226.716 66.5442 227.805 65.2325C228.739 64.0864 229.744 63.0138 230.812 62.0224C233.493 59.553 238.657 60.2212 240.762 56.9239C240.974 56.5961 241.258 56.3345 241.587 56.1647C241.917 55.9949 242.28 55.9226 242.642 55.9547C243.003 55.9869 243.352 56.1224 243.652 56.3483C243.953 56.5741 244.196 56.8825 244.358 57.2435C245.888 60.686 246.973 66.5834 243.129 70.1276C242.42 70.7789 241.615 71.2899 240.749 71.6382Z" fill="#24285B"/>
<path d="M236.147 81.5882C236.147 81.5882 235.062 78.0585 232.735 79.1915C230.407 80.3245 231.95 85.452 235.35 84.7548L236.147 81.5882Z" fill="#F4A28C"/>
<path d="M244.581 76.2861L247.928 79.0169C248.116 79.1745 248.266 79.3821 248.364 79.6208C248.462 79.8594 248.504 80.1214 248.487 80.3829C248.47 80.6444 248.395 80.897 248.267 81.1177C248.14 81.3383 247.965 81.52 247.758 81.646L244.777 83.4472L244.581 76.2861Z" fill="#F4A28C"/>
<path opacity="0.31" d="M239.273 90.8408C237.333 90.7507 235.452 90.0725 233.833 88.8799C233.833 88.8799 233.637 95.8376 241.391 97.0287L239.273 90.8408Z" fill="#CE8172"/>
<path d="M469.667 90.565C472.519 90.565 474.831 87.9962 474.831 84.8274C474.831 81.6586 472.519 79.0898 469.667 79.0898C466.814 79.0898 464.502 81.6586 464.502 84.8274C464.502 87.9962 466.814 90.565 469.667 90.565Z" fill="#C9C9C9"/>
<path d="M76.0572 224.693C78.9095 224.693 81.2218 222.125 81.2218 218.956C81.2218 215.787 78.9095 213.218 76.0572 213.218C73.2049 213.218 70.8926 215.787 70.8926 218.956C70.8926 222.125 73.2049 224.693 76.0572 224.693Z" fill="#C9C9C9"/>
<path d="M464.502 374.785C467.354 374.785 469.667 372.216 469.667 369.048C469.667 365.879 467.354 363.31 464.502 363.31C461.65 363.31 459.337 365.879 459.337 369.048C459.337 372.216 461.65 374.785 464.502 374.785Z" fill="#C9C9C9"/>
<path d="M259.761 103.551C259.761 103.551 287.427 102.592 297.234 114.169C307.04 125.746 323.475 149.495 302.398 189.062L259.761 103.551Z" fill="#FFD200"/>
<path d="M239.991 244.884C239.991 244.884 248.242 269.897 262.572 272.294C271.41 273.746 288.12 274.153 299.652 274.225C303.205 274.255 306.651 275.58 309.46 277.997C312.268 280.414 314.285 283.789 315.199 287.603L323.253 321.23L327.894 322.683L327.738 278.627C327.715 272.095 325.835 265.738 322.367 260.464C318.899 255.19 314.02 251.267 308.426 249.256L293.193 243.751L239.991 244.884Z" fill="#F4A28C"/>
<path opacity="0.36" d="M91.5377 61.732C94.39 61.732 96.7023 59.1632 96.7023 55.9944C96.7023 52.8256 94.39 50.2568 91.5377 50.2568C88.6853 50.2568 86.373 52.8256 86.373 55.9944C86.373 59.1632 88.6853 61.732 91.5377 61.732Z" fill="#C9C9C9"/>
<path d="M247.418 263.782L248.765 305.746L275.451 298.599L281.112 268.343L247.418 263.782Z" fill="#24285B"/>
<path opacity="0.36" d="M327.894 71.2461C330.746 71.2461 333.059 68.6773 333.059 65.5086C333.059 62.3398 330.746 59.771 327.894 59.771C325.042 59.771 322.729 62.3398 322.729 65.5086C322.729 68.6773 325.042 71.2461 327.894 71.2461Z" fill="#C9C9C9"/>
<path opacity="0.36" d="M56.2877 369.063C59.14 369.063 61.4523 366.494 61.4523 363.325C61.4523 360.156 59.14 357.587 56.2877 357.587C53.4353 357.587 51.123 360.156 51.123 363.325C51.123 366.494 53.4353 369.063 56.2877 369.063Z" fill="#C9C9C9"/>
<path opacity="0.36" d="M407.888 237.011C410.74 237.011 413.052 234.442 413.052 231.273C413.052 228.104 410.74 225.536 407.888 225.536C405.035 225.536 402.723 228.104 402.723 231.273C402.723 234.442 405.035 237.011 407.888 237.011Z" fill="#C9C9C9"/>
<path d="M213.227 117.931C213.227 117.931 238.828 99.2948 268.142 110.494C297.456 121.693 304.464 136.161 303.588 170.542C302.712 204.924 293.194 243.765 293.194 243.765L239.992 244.884C239.992 244.884 150.088 163.541 213.227 117.931Z" fill="#2FAEED"/>
<path opacity="0.08" d="M226.969 118.323C226.969 118.323 258.558 117.045 259.761 156.859H266.508L271.96 194.48C271.96 194.48 281.792 199.709 277.53 207.698C277.53 207.698 272.3 223.342 281.112 244.012L239.991 244.869C239.991 244.869 218.418 224.766 204.493 201.22C190.568 177.674 213.776 146.328 213.776 146.328L226.969 118.323Z" fill="black"/>
<path d="M239.991 244.884C239.991 244.884 245.221 273.252 263.134 274.327C281.047 275.402 304.974 278.83 304.974 278.83L315.107 249.866L293.233 243.765L239.991 244.884Z" fill="#24285B"/>
<path d="M204.963 119.413C204.963 119.413 220.653 109.811 233.885 123.451C247.117 137.09 260.231 179.999 201.786 202.295C201.786 202.295 193.64 190.675 192.634 184.865C191.627 179.055 172.864 140.664 204.963 119.413Z" fill="#FFD200"/>
<path d="M229.387 148.042C226.158 131.759 208.062 125.659 196.7 136.553C176.394 156.002 144.125 192.708 154.376 221.236C169.02 262.009 248.751 210.851 248.751 210.851L245.287 196.746C245.287 196.746 190.241 220.379 183.834 202.44C178.617 188.046 235.101 176.992 229.387 148.042Z" fill="#2FAEED"/>
<path d="M255.447 157.223L249.11 158.273L277.573 370.354L283.91 369.305L255.447 157.223Z" fill="#FFD200"/>
<path opacity="0.35" d="M229.387 148.042C226.158 131.759 208.062 125.659 196.7 136.553C176.394 156.002 144.125 192.708 154.376 221.236C169.02 262.009 248.751 210.851 248.751 210.851L245.287 196.746C245.287 196.746 190.241 220.379 183.834 202.44C178.617 188.046 235.101 176.992 229.387 148.042Z" fill="white"/>
<path d="M245.81 198.882C245.81 198.882 251.615 192.781 254.844 194.931C258.074 197.08 260.336 195.918 264.206 196.674C268.076 197.429 269.698 214.337 248.32 209.122L245.81 198.882Z" fill="#24285B"/>
<path d="M357.732 87.1368L372.415 146.706L390.563 132.979L379.358 81.8931L385.542 51.8979H357.732V87.1368Z" fill="#FFD200"/>
<path opacity="0.37" d="M357.732 61.1221H376.468L374.141 82.4019L383.607 127.605L370.297 138.122L357.732 87.1372V61.1221Z" fill="white"/>
<path d="M382.888 98.394C382.888 98.394 388.118 79.1913 378.782 74.9208C369.447 70.6503 372.637 98.2343 382.888 98.394Z" fill="#24285B"/>
<path d="M318.716 305.746H330.797V323.089C330.8 324.422 331.18 325.72 331.884 326.8C332.588 327.879 333.58 328.685 334.72 329.103L340.172 331.122C341.35 331.557 342.376 332.393 343.103 333.511C343.83 334.63 344.223 335.973 344.225 337.353V340.607H323.763C322.925 340.605 322.119 340.25 321.507 339.614C320.896 338.978 320.524 338.108 320.468 337.179L318.716 305.746Z" fill="#24285B"/>
<path d="M157.776 359.374L207.657 314.345L256.139 369.048L292.88 325.965L321.331 339.401L364.793 305.746L390.563 340.607L413.602 390.836H137.288L157.776 359.374Z" fill="#A5A5A5"/>
<path opacity="0.33" d="M207.657 314.345L181.311 366.143L175.637 390.836H137.288L157.776 359.374L207.657 314.345Z" fill="#E6E6E6"/>
<path opacity="0.33" d="M256.139 369.048L272.182 383.573L292.879 325.965L256.139 369.048Z" fill="#E6E6E6"/>
<path opacity="0.33" d="M321.331 339.401L336.681 359.853L362.177 324.745L364.792 305.746L321.331 339.401Z" fill="#E6E6E6"/>
<path d="M246.424 346.301L259.97 348.291L256.139 369.048L246.424 358.095V346.301Z" fill="#24285B"/>
<path d="M245.231 133.985L232.674 136.065L235.229 155.101L247.786 153.021L245.231 133.985Z" fill="#FFD200"/>
<path opacity="0.37" d="M245.231 133.985L232.674 136.065L235.229 155.101L247.786 153.021L245.231 133.985Z" fill="white"/>
<path d="M311.416 125.903L300.907 129.295L305.741 147.777L316.25 144.386L311.416 125.903Z" fill="#FFD200"/>
<path opacity="0.37" d="M311.416 125.903L300.907 129.295L305.741 147.777L316.25 144.386L311.416 125.903Z" fill="white"/>
</svg>
